<svg id="visual" viewBox="0 0 960 540" width="960" height="540" xmlns="http://www.w3.org/2000/svg" xmlns:xlink="http://www.w3.org/1999/xlink" version="1.1"><path d="M0 71L22.8 74.7C45.7 78.3 91.3 85.7 137 94.7C182.7 103.7 228.3 114.3 274 110.7C319.7 107 365.3 89 411.2 73.7C457 58.3 503 45.7 548.8 68.2C594.7 90.7 640.3 148.3 686 187.2C731.7 226 777.3 246 823 239.7C868.7 233.3 914.3 200.7 937.2 184.3L960 168L960 0L937.2 0C914.3 0 868.7 0 823 0C777.3 0 731.7 0 686 0C640.3 0 594.7 0 548.8 0C503 0 457 0 411.2 0C365.3 0 319.7 0 274 0C228.3 0 182.7 0 137 0C91.3 0 45.7 0 22.8 0L0 0Z" fill="#276166"></path><path d="M0 249L22.8 248.2C45.7 247.3 91.3 245.7 137 257.5C182.7 269.3 228.3 294.7 274 308.2C319.7 321.7 365.3 323.3 411.2 309.8C457 296.3 503 267.7 548.8 259.5C594.7 251.3 640.3 263.7 686 291.5C731.7 319.3 777.3 362.7 823 356.5C868.7 350.3 914.3 294.7 937.2 266.8L960 239L960 166L937.2 182.3C914.3 198.7 868.7 231.3 823 237.7C777.3 244 731.7 224 686 185.2C640.3 146.3 594.7 88.7 548.8 66.2C503 43.7 457 56.3 411.2 71.7C365.3 87 319.7 105 274 108.7C228.3 112.3 182.7 101.7 137 92.7C91.3 83.7 45.7 76.3 22.8 72.7L0 69Z" fill="#2d6f75"></path><path d="M0 314L22.8 315C45.7 316 91.3 318 137 329.7C182.7 341.3 228.3 362.7 274 378.8C319.7 395 365.3 406 411.2 398C457 390 503 363 548.8 351.3C594.7 339.7 640.3 343.3 686 359.5C731.7 375.7 777.3 404.3 823 399.8C868.7 395.3 914.3 357.7 937.2 338.8L960 320L960 237L937.2 264.8C914.3 292.7 868.7 348.3 823 354.5C777.3 360.7 731.7 317.3 686 289.5C640.3 261.7 594.7 249.3 548.8 257.5C503 265.7 457 294.3 411.2 307.8C365.3 321.3 319.7 319.7 274 306.2C228.3 292.7 182.7 267.3 137 255.5C91.3 243.7 45.7 245.3 22.8 246.2L0 247Z" fill="#327e83"></path><path d="M0 406L22.8 399.7C45.7 393.3 91.3 380.7 137 379.8C182.7 379 228.3 390 274 402.7C319.7 415.3 365.3 429.7 411.2 435.8C457 442 503 440 548.8 434.5C594.7 429 640.3 420 686 424.5C731.7 429 777.3 447 823 442.5C868.7 438 914.3 411 937.2 397.5L960 384L960 318L937.2 336.8C914.3 355.7 868.7 393.3 823 397.8C777.3 402.3 731.7 373.7 686 357.5C640.3 341.3 594.7 337.7 548.8 349.3C503 361 457 388 411.2 396C365.3 404 319.7 393 274 376.8C228.3 360.7 182.7 339.3 137 327.7C91.3 316 45.7 314 22.8 313L0 312Z" fill="#408b91"></path><path d="M0 449L22.8 447.2C45.7 445.3 91.3 441.7 137 442.7C182.7 443.7 228.3 449.3 274 456.7C319.7 464 365.3 473 411.2 478.3C457 483.7 503 485.3 548.8 483.5C594.7 481.7 640.3 476.3 686 479C731.7 481.7 777.3 492.3 823 489.7C868.7 487 914.3 471 937.2 463L960 455L960 382L937.2 395.5C914.3 409 868.7 436 823 440.5C777.3 445 731.7 427 686 422.5C640.3 418 594.7 427 548.8 432.5C503 438 457 440 411.2 433.8C365.3 427.7 319.7 413.3 274 400.7C228.3 388 182.7 377 137 377.8C91.3 378.7 45.7 391.3 22.8 397.7L0 404Z" fill="#53979d"></path><path d="M0 541L22.8 541C45.7 541 91.3 541 137 541C182.7 541 228.3 541 274 541C319.7 541 365.3 541 411.2 541C457 541 503 541 548.8 541C594.7 541 640.3 541 686 541C731.7 541 777.3 541 823 541C868.7 541 914.3 541 937.2 541L960 541L960 453L937.2 461C914.3 469 868.7 485 823 487.7C777.3 490.3 731.7 479.7 686 477C640.3 474.3 594.7 479.7 548.8 481.5C503 483.3 457 481.7 411.2 476.3C365.3 471 319.7 462 274 454.7C228.3 447.3 182.7 441.7 137 440.7C91.3 439.7 45.7 443.3 22.8 445.2L0 447Z" fill="#66a4a9"></path></svg>